<svg xmlns="http://www.w3.org/2000/svg" width="128" height="128"><path fill="#010101" d="M0 63.941C.086 28.461 28.797-.137 64.184.008 99.598.148 128.07 28.758 128 64.125s-28.789 63.977-64.078 63.855C28.492 127.863-.086 99.234 0 63.941m0 0"/><path fill="#FFF" d="m24.332 68.816 15.063-.023c1.027-.012 1.434.281 1.688 1.309C43.73 80.477 53.176 87.73 64.008 87.754c10.773.031 20.211-7.219 22.965-17.645.281-1.047.672-1.316 1.688-1.312h30.289c1.125 0 1.34.211 1.215 1.395-2.406 22.965-19.145 43.02-42.543 48.602-19.16 4.57-36.426.258-51.273-12.773C16.224 97.138 10.361 85.806 8.15 72.552c-.625-3.734-.633-3.73 3.188-3.73zm0 0"/><path fill="#EB2127" d="M103.609 59.129c-4.914 0-9.828-.035-14.742.027-1.172.016-1.637-.383-1.957-1.496-2.781-9.77-11.332-16.84-20.918-17.371-10.797-.602-19.91 4.965-24.004 14.66a12 12 0 0 0-.332.891c-1.125 3.289-1.125 3.289-4.699 3.289-9.09 0-18.176-.02-27.266.023-1.352 0-1.949-.129-1.703-1.793 3.207-21.918 14.938-37.461 35.391-45.758 22.043-8.945 46.426-3.012 62.434 14.52 8.027 8.793 12.723 19.191 14.203 31.023.25 1.984.23 1.992-1.816 1.992l-14.59-.008zm0 0"/><path fill="#FFF" d="M64.148 80.629c-9.02.082-16.664-7.305-16.734-16.168-.078-9.473 7.207-17.035 16.461-17.098 9.121-.055 16.66 7.359 16.777 16.504.117 9.086-7.363 16.688-16.504 16.762m0 0"/><path fill="#010101" d="M64.145 55.848c4.598.055 8.094 3.691 8.039 8.363-.055 4.484-3.715 7.996-8.297 7.961-2.16-.012-4.223-.887-5.738-2.43s-2.352-3.621-2.332-5.781c.063-4.617 3.703-8.164 8.328-8.113m0 0"/></svg>